<svg width="128" height="128" viewBox="0 0 128 128" fill="none" xmlns="http://www.w3.org/2000/svg">
  <rect width="128" height="128" rx="28" fill="url(#paint0_linear_1_1)"/>
  <circle cx="100" cy="28" r="30" fill="white" fill-opacity="0.18"/>
  <path d="M32 42H44V86H32V42Z" fill="white"/>
  <path d="M55 84.5V72.8C59.8 76.2 65 77.9 70.6 77.9C74.2 77.9 77 77.3 79 76.1C81 74.9 82 73.2 82 71C82 69.1 81.2 67.6 79.7 66.5C78.2 65.4 75.5 64.3 71.6 63.1L67.1 61.8C59.2 59.4 55.2 54.8 55.2 48C55.2 42.9 57.2 39 61.3 36.2C65.4 33.4 70.7 32 77.2 32C82.9 32 87.8 32.8 92 34.5V45.7C87.7 43 82.9 41.7 77.7 41.7C74.8 41.7 72.5 42.2 70.8 43.2C69.1 44.2 68.2 45.7 68.2 47.6C68.2 49.4 69 50.8 70.5 51.8C72 52.8 74.7 53.8 78.6 55L82.4 56.2C86.8 57.6 90 59.4 92.1 61.8C94.2 64.1 95.3 67.1 95.3 70.9C95.3 76.3 93.2 80.5 89.1 83.4C85 86.3 79.2 87.8 71.7 87.8C65.4 87.8 59.8 86.7 55 84.5Z" fill="white"/>
  <defs>
    <linearGradient id="paint0_linear_1_1" x1="17" y1="111" x2="111" y2="17" gradientUnits="userSpaceOnUse">
      <stop stop-color="#22D3EE"/>
      <stop offset="0.55" stop-color="#3B82F6"/>
      <stop offset="1" stop-color="#8B5CF6"/>
    </linearGradient>
  </defs>
</svg>
